<?xml version="1.0" standalone="no"?>
<!DOCTYPE svg PUBLIC "-//W3C//DTD SVG 20010904//EN"
 "http://www.w3.org/TR/2001/REC-SVG-20010904/DTD/svg10.dtd">
<svg version="1.0" xmlns="http://www.w3.org/2000/svg"
 width="512.000000pt" height="512.000000pt" viewBox="0 0 512.000000 512.000000"
 preserveAspectRatio="xMidYMid meet">
<metadata>
Created by potrace 1.14, written by Peter Selinger 2001-2017
</metadata>
<g transform="translate(0.000000,512.000000) scale(0.100000,-0.100000)"
fill="#000000" stroke="none">
<path d="M0 4215 l0 -904 43 -12 c41 -12 184 -23 159 -12 -10 4 -9 8 5 18 20
15 43 9 43 -11 0 -31 52 -40 104 -19 13 6 17 5 12 -3 -11 -18 33 -25 57 -9 12
8 37 44 56 81 19 36 38 66 42 66 4 0 10 10 13 23 6 20 9 18 28 -20 12 -24 25
-43 28 -43 3 0 18 26 32 58 90 195 100 212 110 206 7 -5 9 0 6 14 -4 12 -2 20
3 17 4 -3 18 11 29 32 12 21 19 30 15 19 -33 -109 -109 -312 -157 -423 -34
-77 -32 -103 6 -103 20 0 38 19 90 93 96 136 178 238 206 256 16 11 22 12 16
3 -6 -10 -3 -12 10 -10 13 2 18 -2 15 -12 -18 -74 -23 -101 -25 -137 -1 -24
-1 -43 0 -43 0 0 15 23 32 51 18 27 36 47 42 44 5 -3 10 -1 10 4 0 6 5 11 11
11 8 0 8 -4 -1 -15 -6 -8 -9 -19 -5 -25 3 -5 -2 -10 -12 -11 -10 0 -13 -3 -6
-5 12 -5 -17 -66 -87 -189 -40 -69 -39 -100 1 -114 58 -20 45 -30 245 180 90
94 911 907 966 957 26 23 52 42 57 42 5 0 21 15 36 33 41 48 259 272 275 282
17 10 0 -12 -179 -235 -68 -85 -152 -187 -187 -225 -34 -39 -105 -123 -156
-186 -51 -64 -160 -196 -243 -295 -82 -98 -163 -195 -180 -215 -176 -219 -224
-280 -250 -318 -17 -25 -51 -67 -76 -95 l-47 -51 64 -42 c70 -47 74 -49 74
-30 0 7 21 33 46 57 26 25 42 36 36 25 -6 -11 -24 -33 -41 -49 -17 -17 -31
-38 -31 -47 0 -25 75 -82 99 -74 10 3 57 38 104 78 286 244 815 689 912 767
81 65 184 154 259 222 23 21 44 38 47 38 3 0 19 12 35 28 77 71 407 357 680
588 65 56 211 183 324 284 243 216 302 260 166 126 -73 -73 -95 -101 -85 -107
10 -6 8 -9 -7 -9 -25 0 -52 -26 -34 -32 8 -2 6 -13 -4 -33 -9 -17 -16 -24 -16
-16 0 11 -5 10 -20 -4 -11 -10 -20 -29 -20 -43 0 -19 -4 -23 -17 -17 -14 5
-15 3 -6 -6 18 -18 46 -3 38 20 -3 11 -1 22 4 26 7 3 8 0 5 -9 -4 -11 0 -16
10 -16 9 0 16 5 16 11 0 6 8 9 18 7 9 -2 23 3 30 12 12 13 13 12 9 -7 -3 -12
0 -24 7 -27 6 -3 -1 -3 -16 0 -28 6 -40 -10 -15 -19 8 -4 9 -6 0 -6 -6 -1 -42
-31 -80 -69 -37 -37 -133 -124 -213 -194 -181 -157 -300 -271 -300 -286 0 -7
-4 -12 -10 -12 -20 0 -10 -28 12 -33 29 -8 31 -5 19 27 -6 14 -7 26 -2 26 5 0
11 -9 14 -20 6 -21 38 -18 33 3 -1 7 -1 9 1 5 7 -12 63 -9 63 3 0 6 9 9 20 6
11 -3 20 -1 20 4 0 5 7 9 16 9 9 0 12 5 8 11 -5 9 1 10 22 5 16 -4 26 -5 22
-1 -11 12 24 43 43 38 10 -3 33 6 51 20 18 13 41 23 50 22 10 -2 20 5 23 14 4
13 14 17 42 14 21 -1 44 3 53 11 8 8 26 17 40 22 14 4 27 9 30 10 3 1 15 5 28
9 12 4 22 11 22 16 0 5 6 9 14 9 8 0 22 7 30 16 9 8 16 13 16 10 0 -5 93 51
193 116 23 15 59 37 80 48 21 12 82 52 135 90 53 39 105 75 115 82 10 7 47 33
82 58 35 25 88 63 119 85 31 22 60 40 64 40 4 0 31 18 60 40 29 22 56 40 60
40 4 0 21 10 37 21 41 29 103 64 115 64 13 0 17 -2116 4 -2161 -3 -10 -25 -20
-62 -28 -61 -13 -340 -100 -357 -111 -5 -3 -30 -12 -55 -19 -25 -7 -61 -19
-80 -27 -19 -8 -78 -27 -130 -43 -91 -28 -139 -46 -207 -77 -17 -8 -36 -14
-43 -14 -6 0 -32 -10 -58 -21 -26 -12 -71 -32 -100 -45 -29 -13 -59 -24 -67
-24 -9 0 -23 -4 -33 -10 -20 -11 -150 -57 -204 -72 -21 -6 -38 -14 -38 -18 0
-4 -10 -8 -22 -8 -13 0 -41 -8 -63 -17 -22 -10 -44 -19 -50 -20 -5 -2 -64 -23
-130 -47 -66 -25 -133 -48 -150 -52 -16 -4 -49 -17 -74 -28 -67 -31 -118 -47
-125 -41 -3 4 -6 1 -6 -5 0 -7 -9 -12 -21 -12 -13 0 -18 -4 -13 -12 5 -7 0 -9
-14 -6 -11 3 -34 -3 -53 -14 -17 -11 -55 -28 -83 -39 -28 -12 -89 -39 -136
-62 -47 -23 -88 -40 -91 -40 -4 1 -15 -7 -24 -17 -10 -11 -23 -20 -29 -20 -18
0 -38 -38 -24 -46 7 -5 8 -3 3 6 -6 9 -4 11 4 6 9 -6 8 -13 -6 -28 -18 -20
-18 -20 42 -13 33 4 82 16 108 26 26 11 58 19 70 19 13 0 28 5 33 10 10 10 70
29 219 71 39 11 93 26 120 34 78 23 199 56 210 59 6 1 15 4 20 8 6 3 31 9 58
12 26 4 67 16 90 26 24 11 58 21 75 22 18 1 32 5 32 9 0 3 23 11 50 16 28 6
50 7 50 3 0 -7 -69 -24 -79 -20 -2 1 -7 -3 -11 -9 -3 -6 -33 -17 -66 -23 -32
-7 -65 -18 -72 -25 -7 -7 -19 -10 -26 -7 -8 3 -28 -2 -45 -11 -17 -8 -31 -12
-31 -8 0 4 -6 0 -12 -9 -7 -9 -31 -19 -53 -22 -54 -9 -57 -10 -82 -24 -12 -7
-30 -12 -40 -12 -10 -1 -43 -10 -73 -21 -30 -10 -67 -21 -82 -24 -16 -2 -43
-11 -60 -19 -31 -14 -95 -29 -129 -30 -9 -1 -23 -7 -31 -14 -8 -6 -28 -14 -44
-15 -16 -2 -43 -11 -59 -20 -26 -14 -27 -16 -8 -17 12 0 23 6 26 13 3 9 7 9
19 0 8 -7 17 -11 19 -8 3 2 36 9 74 15 113 18 128 21 138 27 6 3 7 1 3 -5 -4
-8 3 -8 26 -1 18 6 75 12 126 13 62 2 97 7 102 16 4 7 10 8 13 3 6 -10 156 7
233 26 48 12 305 33 312 26 3 -3 -2 -5 -12 -5 -10 0 -54 -9 -99 -19 -122 -30
-362 -85 -635 -146 -133 -30 -293 -69 -355 -85 -61 -17 -238 -62 -392 -101
-154 -39 -283 -73 -286 -77 -7 -8 6 -161 15 -169 2 -3 43 -6 89 -6 47 -1 83
-5 81 -8 -5 -9 122 -18 356 -24 644 -17 653 -18 638 -62 -4 -11 -13 -12 -285
-28 -139 -8 -262 -17 -275 -20 -13 -3 -108 -10 -213 -15 -104 -5 -203 -12
-219 -14 -16 -3 -62 -8 -102 -11 -84 -8 -86 -10 -103 -135 -6 -41 -22 -115
-37 -165 -14 -49 -27 -96 -28 -104 0 -8 17 -19 44 -26 25 -7 71 -21 104 -30
42 -12 56 -19 48 -27 -10 -10 -84 -3 -193 18 -22 4 -28 0 -39 -25 -28 -69
-151 -294 -185 -341 -40 -54 -56 -61 -32 -13 13 25 26 100 32 188 2 17 6 53
10 81 7 50 7 52 -36 96 -55 58 -87 67 -119 33 -31 -33 -40 -31 -40 6 l0 31
-142 -6 c-79 -3 -154 -7 -168 -10 -14 -2 -31 -4 -38 -5 -7 0 -17 -12 -23 -25
-8 -17 -17 -22 -32 -18 -20 5 -20 5 1 13 12 5 22 14 22 22 0 20 -42 14 -54 -8
-6 -11 -21 -30 -33 -44 -18 -20 -23 -22 -28 -9 -3 8 -5 19 -4 24 7 23 -13 52
-34 51 -37 0 -110 12 -116 20 -3 4 -19 9 -36 11 l-30 4 23 -24 c12 -14 22 -30
22 -36 0 -7 6 -12 14 -12 8 0 17 -11 20 -25 4 -14 11 -25 16 -25 6 0 10 -7 10
-16 0 -8 4 -12 10 -9 5 3 10 -2 10 -13 0 -10 12 -25 27 -33 16 -7 39 -22 53
-32 15 -11 33 -16 47 -12 13 3 23 1 23 -5 0 -5 -3 -9 -7 -9 -42 7 -41 -10 0
-39 42 -28 49 -28 41 3 -4 17 -2 25 7 25 7 0 9 -3 6 -7 -4 -3 -2 -12 5 -20 8
-10 7 -16 -6 -26 -14 -11 -13 -14 14 -32 16 -11 30 -25 30 -32 0 -15 10 -21
48 -28 24 -4 32 -2 32 10 0 19 36 91 67 133 18 23 32 32 53 32 63 0 130 -54
102 -82 -10 -10 -88 7 -106 24 -24 20 -42 7 -53 -39 -27 -119 -41 -161 -59
-189 -11 -16 -43 -63 -70 -104 -27 -41 -66 -94 -88 -117 l-39 -43 2057 0 2056
0 0 2560 0 2560 -54 0 c-30 0 -58 -4 -61 -10 -3 -5 -18 -10 -33 -10 -21 0 -24
2 -12 10 12 8 10 10 -8 10 -13 0 -21 -4 -18 -9 3 -5 -6 -12 -22 -16 -15 -4
-21 -10 -15 -12 15 -5 11 -10 -51 -60 -21 -17 -45 -29 -52 -26 -8 3 -14 -1
-14 -11 0 -9 -6 -16 -14 -16 -7 0 -25 -9 -40 -21 -15 -11 -32 -19 -39 -16 -7
2 -18 -2 -25 -9 -7 -8 -9 -14 -5 -14 4 0 -12 -13 -37 -29 -36 -23 -49 -26 -65
-18 -18 9 -19 9 -6 -6 11 -15 11 -17 -2 -17 -8 0 -17 7 -21 15 -4 12 6 21 17
13 9 -6 47 26 47 39 0 13 3 14 12 5 9 -9 16 -5 29 18 12 19 24 28 34 24 8 -4
15 -2 15 3 0 16 59 73 74 73 17 0 33 43 18 48 -5 1 -8 12 -5 22 5 20 -19 20
-2381 20 l-2386 0 0 -905z m4498 602 c8 -10 6 -13 -11 -14 -12 0 -16 1 -9 4 6
3 10 9 6 14 -8 14 2 11 14 -4z m-620 -21 c-13 -14 -28 -12 -28 5 0 5 9 9 20 9
17 0 19 -2 8 -14z m-2189 -367 c-55 -90 -118 -173 -126 -165 -3 2 11 35 31 73
38 73 138 202 143 186 2 -6 -19 -48 -48 -94z m2081 -153 c0 -3 -4 -8 -10 -11
-5 -3 -10 -1 -10 4 0 6 5 11 10 11 6 0 10 -2 10 -4z m-2352 -158 c-2 -15 -11
-24 -25 -26 -27 -4 -29 5 -6 30 22 24 35 23 31 -4z m-148 -72 c0 -17 -48 -76
-61 -76 -17 0 -9 28 17 59 28 33 44 39 44 17z m-924 -294 c-12 -11 -18 7 -10
30 l8 23 4 -23 c2 -13 1 -26 -2 -30z m924 -247 c0 -3 -9 -33 -21 -67 -25 -75
-89 -158 -193 -252 -41 -38 -78 -71 -82 -75 -9 -9 124 219 149 254 48 68 147
162 147 140z m548 -87 c-41 -53 -66 -76 -89 -83 -76 -25 -8 93 73 124 37 14
44 -5 16 -41z m-348 -391 c0 -2 -10 -12 -22 -23 l-23 -19 19 23 c18 21 26 27
26 19z m1614 -1547 c37 -37 -85 -70 -125 -34 -24 21 -24 41 -1 48 26 7 114 -2
126 -14z m-876 -12 c-5 -15 -48 -24 -48 -10 0 14 12 22 33 22 10 0 17 -5 15
-12z m-56 -619 c33 -18 18 -44 -27 -47 -69 -6 -165 34 -148 61 7 12 148 1 175
-14z m-942 -184 c15 -9 12 -41 -4 -54 -15 -13 -66 1 -66 19 0 5 -6 10 -14 10
-14 0 -29 37 -21 51 5 7 84 -13 105 -26z m2444 -266 c8 -8 2 -9 -24 -4 -53 11
-73 27 -26 21 22 -3 44 -10 50 -17z"/>
<path d="M4860 5110 c19 -13 30 -13 30 0 0 6 -10 10 -22 10 -19 0 -20 -2 -8
-10z"/>
<path d="M4787 5079 c4 -13 8 -18 11 -10 2 7 -1 18 -6 23 -8 8 -9 4 -5 -13z"/>
<path d="M4825 5080 c-3 -5 -1 -10 4 -10 6 0 11 5 11 10 0 6 -2 10 -4 10 -3 0
-8 -4 -11 -10z"/>
<path d="M4700 4965 c-10 -12 -10 -15 4 -15 9 0 16 7 16 15 0 8 -2 15 -4 15
-2 0 -9 -7 -16 -15z"/>
<path d="M2035 4078 l-40 -41 42 34 c24 19 43 37 43 42 0 11 -2 9 -45 -35z"/>
<path d="M3205 4049 c-4 -5 -4 -13 -1 -16 3 -4 6 0 6 8 0 11 2 11 10 -1 6 -9
10 -10 10 -3 0 17 -17 25 -25 12z"/>
<path d="M1969 4013 c-13 -16 -12 -17 4 -4 9 7 17 15 17 17 0 8 -8 3 -21 -13z"/>
<path d="M1619 3667 c-102 -100 -142 -141 -90 -92 157 149 286 275 281 275 -3
0 -89 -82 -191 -183z"/>
<path d="M555 3363 c0 -16 3 -27 8 -25 4 1 7 4 7 7 0 3 0 14 0 25 0 11 -4 20
-8 20 -4 0 -8 -12 -7 -27z"/>
<path d="M95 3250 c-3 -5 1 -10 9 -10 9 0 16 5 16 10 0 6 -4 10 -9 10 -6 0
-13 -4 -16 -10z"/>
<path d="M75 3177 c-4 -24 -1 -79 5 -122 7 -44 13 -88 13 -97 1 -9 8 -19 17
-21 13 -3 15 2 12 24 -2 16 0 29 6 29 6 0 8 9 5 19 -3 11 0 28 6 38 9 16 10
15 11 -9 0 -20 4 -26 14 -22 10 4 17 28 21 72 3 37 8 76 10 88 4 16 0 20 -17
19 -12 -1 -34 4 -48 12 -40 21 -48 16 -55 -30z"/>
<path d="M266 3198 c-13 -42 -26 -111 -26 -136 0 -36 24 -60 44 -43 22 19 89
160 82 176 -7 19 -95 21 -100 3z"/>
<path d="M574 3122 c-11 -9 -25 -29 -31 -44 -17 -39 12 -31 38 11 24 40 21 56
-7 33z"/>
<path d="M843 3000 c-20 -8 -113 -136 -113 -155 0 -16 131 123 135 143 2 12 3
22 2 21 -1 0 -12 -4 -24 -9z"/>
<path d="M1100 2845 c0 -9 -4 -13 -10 -10 -5 3 -10 1 -10 -6 0 -6 -12 -26 -27
-44 -55 -63 -64 -77 -80 -111 -9 -18 -14 -37 -10 -40 12 -12 71 20 121 67 28
26 62 56 76 67 l25 20 -25 27 c-35 38 -60 50 -60 30z"/>
<path d="M1159 2702 c-72 -73 -209 -233 -209 -244 0 -22 42 -4 74 32 20 22 39
40 43 40 33 2 193 117 207 149 6 13 -38 81 -52 81 -4 0 -32 -26 -63 -58z"/>
<path d="M890 2570 c-8 -5 -17 -7 -21 -4 -4 2 -12 -3 -19 -11 -7 -8 -21 -15
-30 -15 -10 0 -35 -19 -54 -42 -34 -40 -47 -66 -26 -53 6 3 10 1 10 -4 0 -6 8
-11 19 -11 21 0 45 23 34 33 -3 4 1 7 10 7 10 0 17 3 17 8 0 4 19 26 41 50 40
42 48 60 19 42z"/>
<path d="M643 2347 c-29 -33 -50 -63 -48 -65 2 -2 13 -1 25 3 13 4 19 12 16
21 -4 9 -2 12 5 8 13 -8 73 55 75 79 2 31 -20 17 -73 -46z"/>
<path d="M2573 1823 c9 -2 25 -2 35 0 9 3 1 5 -18 5 -19 0 -27 -2 -17 -5z"/>
<path d="M1745 1474 c-11 -3 -46 -9 -77 -16 -32 -6 -58 -14 -58 -18 0 -4 7
-24 15 -45 l16 -37 77 8 c42 3 87 10 99 15 21 8 23 22 14 92 -1 7 -50 8 -86 1z"/>
<path d="M1654 1094 c-32 -31 -31 -47 4 -40 15 3 46 8 70 11 56 9 54 29 -4 42
-43 10 -49 9 -70 -13z"/>
<path d="M1492 1103 c-22 -9 -2 -23 34 -23 24 0 34 5 34 15 0 15 -39 20 -68 8z"/>
<path d="M1385 989 c-25 -7 -126 -18 -187 -19 -10 0 -18 -7 -18 -15 0 -8 -4
-15 -10 -15 -5 0 -10 -3 -10 -7 0 -14 90 -13 90 0 0 7 8 2 18 -11 14 -18 33
-24 105 -32 48 -6 91 -11 95 -11 48 -7 60 1 71 51 6 28 11 55 11 60 0 12 -124
11 -165 -1z"/>
<path d="M1613 980 c-3 -8 -9 -24 -14 -35 -15 -34 -27 -105 -19 -110 5 -3 42
-8 84 -11 84 -8 80 -11 90 78 5 41 -18 83 -40 74 -8 -3 -14 -1 -14 3 0 5 -19
11 -41 13 -31 3 -42 0 -46 -12z"/>
<path d="M1030 932 c0 -8 46 -9 54 -1 3 3 -8 6 -24 7 -17 1 -30 -1 -30 -6z"/>
<path d="M653 479 c0 -68 271 -310 364 -325 34 -5 42 -2 76 29 20 20 37 43 37
51 0 9 4 16 9 16 5 0 8 12 6 28 -2 15 -4 30 -4 33 -1 4 -27 17 -58 29 -32 12
-69 28 -83 36 -72 43 -194 96 -262 114 -43 11 -79 20 -81 20 -2 0 -4 -14 -4
-31z"/>
<path d="M322 410 c-1 -11 -3 -29 -4 -40 -1 -11 -9 -20 -16 -20 -12 0 -12 -3
-2 -15 7 -9 10 -18 7 -22 -4 -3 5 -25 18 -50 24 -42 33 -93 18 -93 -5 0 -26
16 -48 35 -22 19 -55 38 -75 42 -19 3 -40 11 -46 17 -6 6 -30 27 -53 46 -22
19 -41 42 -42 50 0 11 -2 11 -6 2 -3 -9 -14 -3 -34 18 -16 16 -31 30 -34 30
-3 0 -5 -64 -4 -142 l0 -143 35 -45 c19 -25 37 -53 40 -62 6 -17 34 -18 404
-18 333 0 402 2 426 15 16 8 36 15 45 15 24 0 42 26 34 49 -3 10 -27 38 -53
61 -26 23 -65 58 -88 79 -52 45 -117 92 -169 120 -45 24 -135 63 -150 66 -5 0
-26 4 -45 8 -19 3 -62 9 -95 12 -56 5 -61 4 -63 -15z"/>
<path d="M0 15 c0 -8 7 -15 16 -15 14 0 14 3 4 15 -16 19 -20 19 -20 0z"/>
</g>
</svg>
